# Rhino

mtllib half_coupler_1.mtl
usemtl diffuse_0
v -0.0070050648239190494 0.012189033502732786 0.0099999997764825821
v -0.016331999638372174 0.002862122669835957 -0.0099999997764825821
v -0.016331999638372174 0.002862122669835957 0.0099999997764825821
v -0.0070050648239190494 0.012189033502732786 -0.0099999997764825821
v -0.0070050648239190494 0.012189033502732786 0.0099999997764825821
v -0.018080799916082135 -0.0018984878519350565 -0.0099999997764825821
v -0.018080799916082135 -0.0018984878519350565 0.0099999997764825821
v -0.016331999638372174 0.002862122669835957 -0.0099999997764825821
v -0.016331999638372174 0.002862122669835957 0.0099999997764825821
v -0.016331999638372174 -0.0050074578579315816 -0.0099999997764825821
v -0.016331999638372174 -0.0050074578579315816 0.0099999997764825821
v -0.018080799916082135 -0.0018984878519350565 -0.0099999997764825821
v -0.018080799916082135 -0.0018984878519350565 0.0099999997764825821
v -0.011085598805242292 -0.008602204671109644 -0.0099999997764825821
v -0.011085598805242292 -0.008602204671109644 0.0099999997764825821
v -0.016331999638372174 -0.0050074578579315816 -0.0099999997764825821
v -0.016331999638372174 -0.0050074578579315816 0.0099999997764825821
v -0.011085598805242292 -0.008602204671109644 -0.0099999997764825821
v -0.0070050648239190494 0.012189033502732786 -0.0099999997764825821
v -0.016331999638372174 0.002862122669835957 -0.0099999997764825821
v -0.018080799916082135 -0.0018984878519350565 -0.0099999997764825821
v -0.016331999638372174 -0.0050074578579315816 -0.0099999997764825821
v -0.011085598805242292 -0.008602204671109644 -0.0099999997764825821
v 0.0098563739273016537 -0.010509949116016356 0.0099999997764825821
v -0.016331999638372174 0.002862122669835957 0.0099999997764825821
v -0.018080799916082135 -0.0018984878519350565 0.0099999997764825821
v -0.016331999638372174 -0.0050074578579315816 0.0099999997764825821
v -0.011085598805242292 -0.008602204671109644 0.0099999997764825821
v 0.0050422259780829037 0.015006537610684904 -0.0099999997764825821
v 0.0050422259780829037 0.015006537610684904 0.0099999997764825821
v 0.0094749042007391537 0.0047320456393262472 0
v 0.013907582423395404 -0.0055424463320324097 -0.0099999997764825821
v 0.013907582423395404 -0.0055424463320324097 0.0099999997764825821
v -0.0085668257263238345 -0.010509949116016356 -0.0099999997764825821
v -0.0085668257263238345 -0.010509949116016356 0.0099999997764825821
v 0.0006447741004889096 -0.010509949116016356 0
v 0.0098563739273016537 -0.010509949116016356 -0.0099999997764825821
vn -0.16102664172649384 0.68852770328521729 0.70710676908493042
vn -0.70710676908493042 0.70710676908493042 0
vn -0.70710676908493042 0.70710676908493042 0
vn -0.70710676908493042 0.70710676908493042 0
vn -0.70710676908493042 0.70710676908493042 0
vn -0.93866974115371704 0.34481748938560486 0
vn -0.93866974115371704 0.34481748938560486 0
vn -0.93866974115371704 0.34481748938560486 0
vn -0.93866974115371704 0.34481748938560486 0
vn -0.87157553434371948 -0.49026122689247131 0
vn -0.87157553434371948 -0.49026122689247131 0
vn -0.87157553434371948 -0.49026122689247131 0
vn -0.87157553434371948 -0.49026122689247131 0
vn -0.56523144245147705 -0.82493239641189575 0
vn -0.56523144245147705 -0.82493239641189575 0
vn -0.56523144245147705 -0.82493239641189575 0
vn -0.56523144245147705 -0.82493239641189575 0
vn -0.42693591117858887 -0.56367164850234985 -0.70710676908493042
vn -0.16102664172649384 0.68852770328521729 -0.70710676908493042
vn 0 0 -1
vn 0 0 -1
vn 0 0 -1
vn -0.42693591117858887 -0.56367164850234985 -0.70710676908493042
vn 0.32212865352630615 -0.8505585789680481 0.41567197442054749
vn 0 0 1
vn 0 0 1
vn 0 0 1
vn -0.42693591117858887 -0.56367164850234985 0.70710676908493042
vn 0.28103640675544739 0.83592790365219116 -0.47142663598060608
vn 0.31826856732368469 0.631430983543396 0.70710676908493042
vn 0.918193519115448 0.39613214135169983 0
vn 0.79993623495101929 0.033611558377742767 -0.59914296865463257
vn 0.9150424599647522 -0.12747816741466522 0.38268342614173889
vn -0.22519320249557495 -0.67028951644897461 -0.70710676908493042
vn -0.29422909021377563 -0.87577545642852783 0.38268342614173889
vn 0 -1 0
vn 0.32212865352630615 -0.8505585789680481 -0.41567197442054749
f 3//3 5//5 4//4
f 7//7 9//9 8//8
f 11//11 13//13 12//12
f 15//15 17//17 16//16
f 20//20 23//23 22//22
f 20//20 22//22 21//21
f 25//25 27//27 28//28
f 25//25 26//26 27//27
f 3//3 4//4 2//2
f 7//7 8//8 6//6
f 11//11 12//12 10//10
f 15//15 16//16 14//14
f 29//29 1//1 30//30
f 23//23 20//20 32//32
f 32//32 20//20 19//19
f 32//32 19//19 29//29
f 33//33 25//25 28//28
f 1//1 25//25 33//33
f 30//30 1//1 33//33
f 19//19 1//1 29//29
f 31//31 29//29 30//30
f 33//33 32//32 31//31
f 29//29 31//31 32//32
f 30//30 33//33 31//31
f 18//18 35//35 28//28
f 34//34 35//35 18//18
f 24//24 37//37 33//33
f 34//34 18//18 32//32
f 37//37 34//34 32//32
f 33//33 28//28 35//35
f 24//24 33//33 35//35
f 37//37 32//32 33//33
f 36//36 34//34 37//37
f 24//24 35//35 36//36
f 34//34 36//36 35//35
f 37//37 24//24 36//36
