# Blender v3.5.0 OBJ File: ''
# www.blender.org
mtllib 510_mm_sensor_arch.mtl
o _10_mm_sensor_arch_510_mm_sensor_arch
v 0.020000 -0.255000 -0.510000
v 0.020000 -0.275000 -0.510000
v -0.020000 -0.255000 -0.510000
v -0.020000 -0.275000 -0.510000
v -0.020000 -0.255000 -0.238284
v -0.020000 -0.275000 -0.238284
v -0.291716 -0.255000 -0.510000
v -0.291716 -0.275000 -0.510000
v -0.320000 -0.255000 -0.510000
v -0.320000 -0.275000 -0.510000
v -0.020000 -0.255000 -0.210000
v -0.020000 -0.275000 -0.210000
v 0.020000 0.255000 -0.510000
v 0.020000 0.275000 -0.510000
v 0.020000 0.255000 -0.020000
v 0.020000 0.275000 0.000000
v 0.020000 -0.255000 -0.020000
v 0.020000 -0.275000 0.000000
v -0.020000 0.255000 -0.510000
v -0.020000 0.275000 -0.510000
v -0.020000 0.255000 -0.238284
v -0.020000 0.275000 -0.238284
v -0.291716 0.255000 -0.510000
v -0.291716 0.275000 -0.510000
v -0.320000 0.255000 -0.510000
v -0.320000 0.275000 -0.510000
v -0.020000 0.255000 -0.210000
v -0.020000 0.275000 -0.210000
v -0.020000 -0.255000 -0.020000
v -0.020000 -0.275000 0.000000
v -0.020000 0.255000 -0.020000
v -0.020000 0.275000 0.000000
vn 0.0000 0.0000 -1.0000
vn -1.0000 0.0000 0.0000
vn 0.7071 0.0000 -0.7071
vn -0.7071 0.0000 0.7071
vn 1.0000 0.0000 0.0000
vn 0.0000 0.0000 1.0000
vn 0.0000 1.0000 0.0000
vn 0.0000 -1.0000 0.0000
usemtl Dark.007
s off
f 1//1 2//1 3//1
f 3//1 2//1 4//1
f 3//2 4//2 5//2
f 5//2 4//2 6//2
f 5//3 6//3 7//3
f 7//3 6//3 8//3
f 7//1 8//1 9//1
f 9//1 8//1 10//1
f 9//4 10//4 11//4
f 11//4 10//4 12//4
f 13//5 14//5 15//5
f 15//5 14//5 16//5
f 15//5 16//5 17//5
f 17//5 16//5 18//5
f 17//5 18//5 1//5
f 1//5 18//5 2//5
f 19//1 20//1 13//1
f 13//1 20//1 14//1
f 21//2 22//2 19//2
f 19//2 22//2 20//2
f 23//3 24//3 21//3
f 21//3 24//3 22//3
f 25//1 26//1 23//1
f 23//1 26//1 24//1
f 27//4 28//4 25//4
f 25//4 28//4 26//4
f 11//2 12//2 29//2
f 29//2 12//2 30//2
f 29//2 30//2 31//2
f 31//2 30//2 32//2
f 31//2 32//2 27//2
f 27//2 32//2 28//2
f 16//6 32//6 18//6
f 18//6 32//6 30//6
f 14//7 20//7 16//7
f 16//7 20//7 22//7
f 32//7 16//7 28//7
f 28//7 16//7 22//7
f 28//7 22//7 26//7
f 26//7 22//7 24//7
f 6//8 4//8 2//8
f 18//8 30//8 12//8
f 10//8 8//8 12//8
f 12//8 8//8 6//8
f 12//8 6//8 18//8
f 18//8 6//8 2//8
f 1//7 3//7 17//7
f 17//7 3//7 5//7
f 29//7 17//7 11//7
f 11//7 17//7 5//7
f 11//7 5//7 9//7
f 9//7 5//7 7//7
f 17//1 29//1 15//1
f 15//1 29//1 31//1
f 21//8 19//8 13//8
f 15//8 31//8 27//8
f 25//8 23//8 27//8
f 27//8 23//8 21//8
f 27//8 21//8 15//8
f 15//8 21//8 13//8
